HIERARCHY
ROOT pelvis
{
  OFFSET 0 100 0
  CHANNELS 6 Xposition Yposition Zposition Zrotation Xrotation Yrotation
  JOINT pelvis_right_femur
  {
    OFFSET -10.78128 -3.44521 -0.5502486
    CHANNELS 3 Zrotation Xrotation Yrotation
    JOINT right_femur_tibia
    {
      OFFSET -0.8047443 -44.0398 -0.1307829
      CHANNELS 3 Zrotation Xrotation Yrotation
      JOINT right_tibia_foot
      {
        OFFSET 3.006224 -47.83518 -5
        CHANNELS 3 Zrotation Xrotation Yrotation
        End Site
        {
          OFFSET 0 -5 15
        }
      }
    }
  }
  JOINT pelvis_left_femur
  {
    OFFSET 10.78128 -3.44521 -0.5502486
    CHANNELS 3 Zrotation Xrotation Yrotation
    JOINT left_femur_tibia
    {
      OFFSET 0.8047443 -44.0398 -0.1307829
      CHANNELS 3 Zrotation Xrotation Yrotation
      JOINT left_tibia_foot
      {
        OFFSET -4.370144 -48.10324 -4.275266
        CHANNELS 3 Zrotation Xrotation Yrotation
        End Site
        {
          OFFSET 0 -5 15
        }
      }
    }
  }
  JOINT pelvis_spine1
  {
    OFFSET 0 6.468898 -3.129235
    CHANNELS 3 Zrotation Xrotation Yrotation
    JOINT spine1
    {
      OFFSET 0 23.15396 4.99043
      CHANNELS 3 Zrotation Xrotation Yrotation
      JOINT spine2
      {
        OFFSET 0 20.79997 -5.064912
        CHANNELS 3 Zrotation Xrotation Yrotation
        JOINT neck
        {
          OFFSET 0 14.38658 9.616178
          CHANNELS 3 Zrotation Xrotation Yrotation
          End Site
          {
            OFFSET 0 20 0
          }
        }
      }
      JOINT right_manubrium
      {
        OFFSET -5.722621 16.35077 3.967754
        CHANNELS 3 Zrotation Xrotation Yrotation
        JOINT right_clavicle
        {
          OFFSET -13.16364 1.694482 -4.693211
          CHANNELS 3 Zrotation Xrotation Yrotation
          JOINT right_humerus
          {
            OFFSET -28.5034 -0.3100689 -2.792744
            CHANNELS 3 Zrotation Xrotation Yrotation
            JOINT right_radius
            {
              OFFSET -25.15693 0.02248979 -1.271978
              CHANNELS 3 Zrotation Xrotation Yrotation
              End Site
              {
                OFFSET -15 0 0
              }
            }
          }
        }
      }
      JOINT left_manubrium
      {
        OFFSET 5.722621 16.35077 3.967754
        CHANNELS 3 Zrotation Xrotation Yrotation
        JOINT left_clavicle
        {
          OFFSET 13.16364 1.694482 -4.693211
          CHANNELS 3 Zrotation Xrotation Yrotation
          JOINT left_humerus
          {
            OFFSET 29.39168 -1.063119 -2.237045
            CHANNELS 3 Zrotation Xrotation Yrotation
            JOINT left_radius
            {
              OFFSET 24.59957 -0.9528479 0.9047498
              CHANNELS 3 Zrotation Xrotation Yrotation
              End Site
              {
                OFFSET 15 -0 -0
              }
            }
          }
        }
      }
    }
  }
}
MOTION
Frames: 17
Frame Time: 0.0416666666667
0 103.5113 0 1.499726 -2.200493 -0.09850397 2.592854 -12.73119 8.225638 -0 35.13832 -0 -5.444761 -16.89802 -4.944844 -6.817053 13.51075 -24.38153 -0 6.097661 -0 0.7412558 -20.38568 23.68947 -4.180652 -3.844344 3.670443 2.632233 8.413301 -8.33598 0.5466929 23.24851 7.556035 3.693396 -22.75574 8.177481 6.422443 -19.45184 11.43385 86.66457 35.09073 -22.43795 -0 0 15.81621 -8.465331 8.215118 5.334185 4.057916 -19.05003 -3.262253 -99.86538 39.82191 28.03314 0 0 -19.82918 -11.41286 16.22812 26.88385
0.1740254 103.4629 1.263984 1.298649 -1.853102 -0.1889469 2.830775 -14.26678 8.164031 -0 35.30519 -0 -5.560199 -16.15153 -4.775588 -6.751166 13.27153 -24.22732 -0 5.899451 -0 0.8597485 -20.70947 23.40282 -4.073851 -3.480678 3.6364 2.637085 8.344231 -8.278498 0.6071821 23.08337 7.637441 3.761426 -23.07996 8.34044 6.495293 -19.35777 11.44056 86.52188 35.34463 -22.12807 -0 0 15.82831 -8.300707 8.263767 5.331926 4.213306 -19.07094 -3.119081 -99.44835 39.27821 27.65669 0 0 -19.75624 -10.37474 16.28643 25.89928
0.3727799 103.3299 2.776341 0.9367292 -1.274365 -0.05318464 2.990698 -17.70195 7.168624 -0 34.76734 -0 -5.97454 -13.33978 -4.358004 -6.545586 12.91288 -23.12283 -0 5.190939 -0 0.2456931 -21.72478 21.88081 -3.858876 -2.586948 3.356652 2.592914 8.28161 -8.286601 0.5690877 22.77084 7.967623 4.00584 -23.50558 8.487206 6.490952 -19.01244 11.45788 86.62208 35.7795 -21.87467 -0 0 15.28557 -9.075847 8.755849 5.87982 4.557215 -19.51754 -3.130988 -97.87298 38.30698 26.12519 0 0 -20.51141 -8.859606 16.03972 24.51881
0.5652263 103.0671 4.485987 0.6052799 -0.6579634 0.2002647 3.496983 -20.96314 6.952227 -0 32.70351 -0 -5.951686 -11.83941 -4.284941 -6.294134 13.04878 -22.66676 -0 5.267727 -0 -0.5937595 -23.04522 20.81535 -3.630909 -1.892821 3.294808 2.599143 7.981336 -8.223724 0.7711705 22.45515 8.058087 4.15844 -23.90115 8.725944 6.362473 -18.69754 11.3312 86.61513 35.66425 -21.83058 -0 0 15.23357 -8.86048 8.907552 5.71533 4.959141 -19.70252 -2.948635 -97.43955 38.26369 25.54158 0 0 -21.23309 -8.389506 15.82163 24.34592
0.7423867 102.6649 6.456488 0.2513493 0.02074076 0.5525644 4.049658 -24.27337 6.742054 -0 30.03918 -0 -5.919426 -10.36933 -4.24217 -6.002566 13.36076 -22.16036 -0 5.581862 -0 -1.614741 -24.32564 19.62243 -3.374537 -1.230803 3.215566 2.622176 7.622731 -8.172958 0.9910488 22.13062 8.1279 4.303586 -24.29101 8.962223 6.180087 -18.30599 11.16467 86.67007 35.49407 -21.88235 -0 0 15.06452 -8.617068 9.040167 5.51534 5.389399 -19.89573 -2.737399 -96.92076 38.25169 24.79821 0 0 -22.0719 -7.944824 15.58278 24.18336
0.8996756 102.1347 8.748959 -0.1514763 0.8532719 0.9808393 4.704313 -27.5743 6.616219 -0 26.8144 -0 -5.888507 -8.999681 -4.18315 -5.673486 13.79832 -21.6591 -0 6.20898 -0 -2.785495 -25.45456 18.30881 -3.074322 -0.644713 3.141448 2.68214 7.210044 -8.15075 1.208333 21.7592 8.198339 4.456028 -24.76136 9.200946 6.003193 -17.86987 10.98231 86.7504 35.39675 -22.0458 -0 0 14.81988 -8.279387 9.169551 5.275718 5.824662 -20.08244 -2.467862 -96.41481 38.25 24.06011 0 0 -23.00423 -7.504509 15.32601 24.03302
1.037053 101.4962 11.45912 -0.6270194 1.801531 1.476932 5.390572 -30.72412 6.422936 -0 23.32789 -0 -5.94636 -7.590907 -4.057993 -5.290166 14.32334 -21.0026 -0 7.130209 -0 -4.106144 -26.20756 16.75936 -2.700817 -0.1352319 3.009134 2.772541 6.784298 -8.174924 1.371879 21.35768 8.296091 4.603393 -25.28094 9.413024 5.831487 -17.3645 10.80502 86.8955 35.42142 -22.28508 -0 0 14.36274 -8.058238 9.356281 5.143873 6.225399 -20.28794 -2.182594 -95.66399 38.02761 23.09006 0 0 -24.00253 -6.849123 15.03025 23.61702
1.157305 100.7837 14.70478 -1.194368 2.808688 2.029643 6.072901 -33.47171 6.102683 -0 19.85202 -0 -6.131912 -6.212674 -3.860973 -4.832658 14.93444 -20.10609 -0 8.445666 -0 -5.557747 -26.32421 14.94432 -2.217834 0.2610353 2.77803 2.893665 6.374252 -8.260742 1.446518 20.94854 8.419646 4.711665 -25.80671 9.571885 5.662851 -16.78167 10.64847 87.1293 35.56473 -22.58265 -0 0 13.62336 -8.058822 9.632715 5.197225 6.533168 -20.49882 -1.912825 -94.5608 37.43974 21.79594 0 0 -25.00135 -5.880947 14.67218 22.79466
1.264913 100.0534 18.6152 -1.851372 3.737278 2.612897 6.706525 -35.39056 5.623808 -0 16.81902 -0 -6.461314 -5.053557 -3.63293 -4.286653 15.62822 -18.8969 -0 10.40046 -0 -7.058797 -25.46318 12.92365 -1.590041 0.4890045 2.413179 3.039348 6.025374 -8.416906 1.40259 20.58164 8.540621 4.718597 -26.24225 9.639462 5.485551 -16.11883 10.52965 87.48074 35.76095 -22.90999 -0 0 12.54789 -8.37693 10.01912 5.495201 6.65908 -20.67665 -1.707558 -93.0513 36.3406 20.12736 0 0 -25.86093 -4.539616 14.2208 21.45078
1.365908 99.40574 23.2976 -2.552797 4.374758 3.16926 7.27942 -35.90151 5.066122 -0 14.84163 -0 -6.900672 -4.40464 -3.470965 -3.667753 16.31975 -17.37195 -0 13.51759 -0 -8.425592 -23.27729 10.91211 -0.8067306 0.488499 1.930943 3.194573 5.811376 -8.633389 1.231816 20.32217 8.601494 4.551778 -26.46254 9.576297 5.304964 -15.40366 10.47478 87.95631 35.90759 -23.22411 -0 0 11.16554 -9.031203 10.52016 6.032801 6.490286 -20.75418 -1.621105 -91.25324 34.64871 18.21673 0 0 -26.34248 -2.857861 13.64343 19.58368
1.467223 99.0102 28.77835 -3.175338 4.44891 3.59859 7.817519 -34.42041 4.654624 -0 14.58389 -0 -7.352608 -4.498354 -3.516321 -3.055663 16.72941 -15.63525 -0 18.69328 -0 -9.391558 -19.6136 9.292417 0.06953941 0.2463947 1.453555 3.326232 5.84471 -8.857879 0.9743247 20.23753 8.521832 4.17298 -26.34141 9.358005 5.162773 -14.70745 10.52091 88.51889 35.89896 -23.46207 -0 0 9.631335 -9.920082 11.12379 6.696642 5.936939 -20.66241 -1.694562 -89.49141 32.43685 16.42171 0 0 -26.13907 -0.9949906 12.93092 17.3688
1.573435 99.10262 34.93317 -3.501136 3.718711 3.77471 8.301815 -30.67889 4.651854 -0 16.2685 -0 -7.676149 -5.224309 -3.866922 -2.613765 16.28911 -13.89416 -0 26.99218 -0 -9.737649 -14.8244 8.515283 0.8485818 -0.1313741 1.242287 3.378322 6.258946 -8.977018 0.7374018 20.37 8.23282 3.652282 -25.80724 8.99191 5.140937 -14.14247 10.70724 89.07167 35.69926 -23.55154 -0 0 8.213944 -10.84274 11.80487 7.266246 5.033087 -20.40358 -1.92349 -88.20758 30.01688 15.2204 0 0 -25.05067 0.7595436 12.13622 15.17954
1.67914 99.89543 41.45656 -3.288541 2.143199 3.614516 8.545975 -25.03413 5.080682 -0 18.99663 -0 -7.744934 -5.995482 -4.415883 -2.52563 14.21823 -12.35033 -0 38.6836 -0 -9.464482 -9.921926 8.883517 1.233511 -0.4055458 1.611517 3.284367 7.132429 -8.840381 0.6516891 20.70726 7.746435 3.202876 -24.89511 8.509351 5.315313 -13.83949 11.05527 89.44296 35.41565 -23.40236 -0 0 7.197432 -11.68976 12.52984 7.568771 4.024627 -20.12692 -2.244231 -87.71858 27.85856 14.92779 0 0 -23.27719 2.065596 11.37545 13.46538
1.765009 101.3936 47.93936 -2.476436 0.04664778 3.158619 8.297623 -18.43956 5.570124 -0 20.74785 -0 -7.501113 -6.203858 -4.779481 -2.794281 9.896804 -11.03535 -0 51.71891 -0 -8.828492 -6.191788 10.30661 1.015293 -0.3398837 2.689047 3.006573 8.363269 -8.356697 0.7469043 21.16172 7.2145 3.070305 -23.76559 7.944403 5.663891 -13.93413 11.54905 89.35856 35.27012 -22.83276 -0 0 6.820662 -12.69229 13.26343 7.746016 3.293427 -20.06518 -2.56605 -87.99895 26.29832 15.48773 0 0 -21.51567 2.681435 10.73903 12.52363
1.81774 103.2707 54.06346 -1.354242 -1.954916 2.534948 7.557049 -11.96268 5.619331 -0 19.81932 -0 -6.971165 -6.006018 -4.553484 -3.071508 3.422774 -9.77187 -0 61.69267 -0 -8.175605 -4.349364 12.22956 0.3339346 0.09836366 4.219702 2.571925 9.62478 -7.590171 0.8911081 21.59103 6.857668 3.301095 -22.64799 7.351703 6.00582 -14.53767 12.11841 88.50791 35.35732 -21.53452 -0 0 7.32576 -14.31026 13.95603 8.252489 3.086188 -20.28133 -2.822349 -88.71032 25.31046 16.58611 0 0 -20.46944 2.604377 10.19873 12.3412
1.863928 105.006 59.76303 -0.3883866 -3.38682 1.826796 6.63952 -6.207225 5.077831 -0 16.45305 -0 -6.208778 -6.298541 -3.737112 -2.867623 -4.175544 -8.350968 -0 64.9354 -0 -7.730862 -4.100678 13.99275 -0.3749412 0.7254439 5.712966 2.051741 10.53833 -6.711643 0.9472091 21.89345 6.751382 3.656909 -21.68502 6.836742 6.074005 -15.62941 12.63005 86.81086 35.38195 -19.28422 -0 0 8.879153 -16.66915 14.48453 9.365686 3.322687 -20.51696 -2.989009 -89.49191 24.64086 17.917 0 0 -20.12607 2.072992 9.669976 12.64786
1.963191 106.1753 65.1781 0.1567569 -4.208079 1.058301 5.850555 -1.186362 4.235585 -0 12.39786 -0 -5.240147 -7.739492 -2.70779 -1.990487 -11.56337 -6.743219 -0 61.35076 -0 -7.514525 -4.638968 15.31251 -0.7799912 1.319754 6.828253 1.509915 10.91992 -5.85495 0.9260753 22.07131 6.763046 3.844384 -20.86677 6.502037 5.712568 -17.01368 12.94028 84.58682 34.89752 -16.2307 -0 0 11.35845 -19.33086 14.69239 10.87304 3.730432 -20.42235 -3.061634 -90.20849 24.10571 19.32501 0 0 -19.82805 1.383054 9.136471 13.13811
